<svg xmlns="http://www.w3.org/2000/svg" width="24" height="24"><path fill="#ffcc80" d="M9.99 13.53A8.46 8.46 0 0 0 9 17.5c0 .73.09 1.44.27 2.11L0 14.59V4.86l9.99 4.87z"/><path fill="#ffb74d" d="M20 4.86v4.51c-.79-.24-1.63-.37-2.5-.37-3.24 0-6.06 1.82-7.49 4.49V9.73z"/><path fill="#ffa726" d="m20 4.86-9.99 4.87-3.89-1.89-1.62-.79L0 4.86 9.99 0l4.26 2.07 1.7.82z"/><path fill="#795548" d="M15.732 2.796 5.848 7.72v4.974l-1.566-.798v-4.94l9.75-4.98z"/><path fill="#4caf50" d="M17.5 24c-3.584 0-6.5-2.916-6.5-6.5s2.916-6.5 6.5-6.5 6.5 2.916 6.5 6.5-2.916 6.5-6.5 6.5z"/><path fill="#fff" d="M17.5 20a.75.75 0 0 1-.505-.195l-2.75-2.5a.75.75 0 0 1 1.01-1.111l2.245 2.042 2.245-2.042a.75.75 0 0 1 1.01 1.111l-2.75 2.5A.75.75 0 0 1 17.5 20z"/></svg>