<svg xmlns="http://www.w3.org/2000/svg" xml:space="preserve" width="32" height="32" viewBox="0 0 24 24"><path fill="#B0BEC5" d="M3.75 5.5a1 1 0 0 1-1-1V1a1 1 0 0 1 2 0v3.5a1 1 0 0 1-1 1zM8.5 5.5a1 1 0 0 1-1-1V1a1 1 0 0 1 2 0v3.5a1 1 0 0 1-1 1zM13.25 5.5a1 1 0 0 1-1-1V1a1 1 0 0 1 2 0v3.5a1 1 0 0 1-1 1z"/><path fill="#ECEFF1" d="M14.25 2.25H2.75C1.23 2.25 0 3.48 0 5v13.25C0 19.77 1.23 21 2.75 21h7.84c-.38-.93-.59-1.94-.59-3 0-.91.44-1.71 1.12-2.21-.01-.03-.01-.06-.02-.09a4.57 4.57 0 0 1-.07-.36c-.01-.08-.02-.15-.02-.23 0-.04-.01-.07-.01-.11v-2.25c0-.59.18-1.14.52-1.6.29-.41.7-.75 1.19-.95.33-.13.68-.2 1.04-.2.55 0 1.09.17 1.54.48.55-.2 1.12-.34 1.71-.41V5c0-1.52-1.23-2.75-2.75-2.75z"/><path fill="#90A4AE" d="M11.52 11.15c-.34.46-.52 1.01-.52 1.6V13H4c-.55 0-1-.45-1-1s.45-1 1-1h7c.19 0 .37.05.52.15zM8 9H4a1 1 0 0 1 0-2h4a1 1 0 0 1 0 2z"/><path fill="#607D8B" d="M18 24c-3.309 0-6-2.691-6-6a.75.75 0 0 1 1.5 0c0 2.481 2.019 4.5 4.5 4.5s4.5-2.019 4.5-4.5-2.019-4.5-4.5-4.5c-1.489 0-2.778.684-3.632 1.925a.75.75 0 1 1-1.236-.85C14.257 12.938 16.031 12 18 12c3.309 0 6 2.691 6 6s-2.691 6-6 6z"/><path fill="#607D8B" d="M15.945 15.75H13.75A.75.75 0 0 1 13 15v-2.25a.751.751 0 0 1 1.287-.524l2.195 2.25a.751.751 0 0 1-.537 1.274z"/></svg>