<svg xmlns="http://www.w3.org/2000/svg" width="24" height="24"><g fill-rule="evenodd"><path d="M12.627 13.666A.5.5 0 0 1 13 13.5h9a.5.5 0 0 1 .497.555l-.802 7.221A2.5 2.5 0 0 1 19.21 23.5h-3.42a2.5 2.5 0 0 1-2.485-2.224l-.802-7.22a.5.5 0 0 1 .124-.39Zm.932.834.74 6.666A1.5 1.5 0 0 0 15.79 22.5h3.42a1.5 1.5 0 0 0 1.49-1.334l.741-6.666H13.56Z"/><path d="M17.018 15.869a.5.5 0 0 0 .35.614l5.5 1.5a.5.5 0 1 0 .264-.965l-5.5-1.5a.5.5 0 0 0-.614.35ZM15.416 10.842A2.992 2.992 0 0 1 17.5 10c.81 0 1.544.321 2.084.842.1.097.252.158.416.158a2.5 2.5 0 0 1 2.5 2.5 1 1 0 0 1-1 1h-8a1 1 0 0 1-1-1A2.5 2.5 0 0 1 15 11a.604.604 0 0 0 .416-.158ZM17.5 11c-.54 0-1.029.213-1.39.561A1.603 1.603 0 0 1 15 12a1.5 1.5 0 0 0-1.5 1.5h8A1.5 1.5 0 0 0 20 12c-.399 0-.807-.146-1.11-.439A1.992 1.992 0 0 0 17.5 11ZM4.535 15.837a1.5 1.5 0 0 1 1.837-1.061l3.863 1.035a1.5 1.5 0 0 1 1.061 1.837l-.259.966a1.5 1.5 0 0 1-1.837 1.06L5.336 18.64a1.5 1.5 0 0 1-1.06-1.837l.259-.966Zm1.578-.095a.5.5 0 0 0-.612.353l-.26.966a.5.5 0 0 0 .354.613l3.864 1.035a.5.5 0 0 0 .612-.354l.26-.965a.5.5 0 0 0-.354-.613l-3.864-1.035Z"/><path d="M4.196 18.664a1.5 1.5 0 0 1 1.824-.88l3.178.954a1.5 1.5 0 0 1 1.012 1.848l-.522 1.826A1.5 1.5 0 0 1 8.246 23.5H3c-1.64 0-2.09-2.254-.577-2.884l.997-.416a.5.5 0 0 0 .272-.276l.504-1.26.464.185-.464-.185Zm1.536.078a.5.5 0 0 0-.607.293l-.505 1.26a1.5 1.5 0 0 1-.815.828l-.193-.461.193.461-.997.415c-.505.21-.354.962.192.962h5.246a.5.5 0 0 0 .48-.363l.522-1.825a.5.5 0 0 0-.337-.617l-3.179-.953ZM11.74 2.014a.5.5 0 0 1 .37.603l-3.124 13a.5.5 0 0 1-.972-.234l3.123-13a.5.5 0 0 1 .603-.37ZM4 8.5a.5.5 0 0 1 .474.342l.171.513.513.17a.5.5 0 0 1 0 .95l-.513.17-.17.513a.5.5 0 0 1-.95 0l-.17-.513-.513-.17a.5.5 0 0 1 0-.95l.513-.17.17-.513A.5.5 0 0 1 4 8.5ZM20 3.5a.5.5 0 0 1 .474.342l.171.513.513.17a.5.5 0 0 1 0 .95l-.513.17-.17.513a.5.5 0 0 1-.95 0l-.17-.513-.513-.17a.5.5 0 0 1 0-.95l.513-.17.17-.513A.5.5 0 0 1 20 3.5Z"/></g></svg>