<svg xmlns="http://www.w3.org/2000/svg" width="24" height="24"><g fill="#110638" fill-rule="evenodd"><path d="M12.627 13.666A.5.5 0 0 1 13 13.5h9a.5.5 0 0 1 .497.555l-.802 7.221A2.5 2.5 0 0 1 19.21 23.5h-3.42a2.5 2.5 0 0 1-2.485-2.224l-.802-7.22a.5.5 0 0 1 .124-.39Zm.932.834.74 6.666A1.5 1.5 0 0 0 15.79 22.5h3.42a1.5 1.5 0 0 0 1.49-1.334l.741-6.666H13.56Z"/><path d="M17.018 15.868a.5.5 0 0 0 .35.614l5.5 1.5a.5.5 0 0 0 .264-.964l-5.5-1.5a.5.5 0 0 0-.614.35Z"/><path fill="#F3C461" d="M17.5 10c-.81 0-1.544.321-2.084.842A.604.604 0 0 1 15 11a2.5 2.5 0 0 0-2.5 2.5 1 1 0 0 0 1 1h8a1 1 0 0 0 1-1A2.5 2.5 0 0 0 20 11a.604.604 0 0 1-.416-.158A2.992 2.992 0 0 0 17.5 10Z"/><path d="M4.535 15.836a1.5 1.5 0 0 1 1.837-1.06l3.863 1.035a1.5 1.5 0 0 1 1.061 1.837l-.259.966a1.5 1.5 0 0 1-1.837 1.06L5.336 18.64a1.5 1.5 0 0 1-1.06-1.838l.259-.965Zm1.578-.094a.5.5 0 0 0-.612.353l-.26.966a.5.5 0 0 0 .354.613l3.864 1.035a.5.5 0 0 0 .612-.354l.26-.966a.5.5 0 0 0-.354-.612l-3.864-1.035Z"/><path fill="#F3C461" d="M6.02 17.784a1.5 1.5 0 0 0-1.824.88l.464.185-.464-.186-.504 1.261a.5.5 0 0 1-.272.276l-.997.415C.91 21.246 1.36 23.5 3 23.5h5.246a1.5 1.5 0 0 0 1.442-1.088l.522-1.826a1.5 1.5 0 0 0-1.012-1.849l-3.178-.953Z"/><path d="M11.74 2.014a.5.5 0 0 1 .37.603l-3.124 13a.5.5 0 1 1-.972-.234l3.123-13a.5.5 0 0 1 .603-.37ZM4 8.5a.5.5 0 0 1 .474.342l.171.513.513.17a.5.5 0 0 1 0 .95l-.513.17-.17.513a.5.5 0 0 1-.95 0l-.17-.513-.513-.17a.5.5 0 0 1 0-.95l.513-.17.17-.513A.5.5 0 0 1 4 8.5ZM20 3.5a.5.5 0 0 1 .474.342l.171.513.513.17a.5.5 0 0 1 0 .95l-.513.17-.17.513a.5.5 0 0 1-.95 0l-.17-.513-.513-.17a.5.5 0 0 1 0-.95l.513-.17.17-.513A.5.5 0 0 1 20 3.5Z"/></g></svg>