<svg xmlns="http://www.w3.org/2000/svg" xml:space="preserve" width="24" height="24"><path fill="#90A4AE" d="M15.25 4.5h-6.5A.75.75 0 0 1 8 3.75v-2C8 .785 8.785 0 9.75 0h4.5C15.215 0 16 .785 16 1.75v2a.75.75 0 0 1-.75.75zM18.25 24H5.75A2.752 2.752 0 0 1 3 21.25V7.75A.75.75 0 0 1 3.75 7h16.5a.75.75 0 0 1 .75.75v13.5A2.752 2.752 0 0 1 18.25 24z"/><path fill="#607D8B" d="M22.25 8.5H1.75A.75.75 0 0 1 1 7.75v-2A2.752 2.752 0 0 1 3.75 3h16.5A2.752 2.752 0 0 1 23 5.75v2a.75.75 0 0 1-.75.75z"/><path fill="#FFF" d="M7.75 20.25a1 1 0 0 1-1-1v-7.5a1 1 0 1 1 2 0v7.5a1 1 0 0 1-1 1zM12 20.25a1 1 0 0 1-1-1v-7.5a1 1 0 1 1 2 0v7.5a1 1 0 0 1-1 1zM16.25 20.25a1 1 0 0 1-1-1v-7.5a1 1 0 1 1 2 0v7.5a1 1 0 0 1-1 1z"/></svg>