<svg xmlns="http://www.w3.org/2000/svg" xml:space="preserve" width="32" height="32" viewBox="0 0 24 24"><path fill="#217345" d="M23.871 20.268c.085-.262.129-.474.129-.635V3.178c0-.128-.044-.205-.129-.231a1.1 1.1 0 0 0-.318-.04h-8.04V4.39h2.37v2.348h-2.37v.748h2.37v2.351h-2.37v.769h2.37v2.223h-2.37v.891h2.37v2.228h-2.37v.891h2.37v2.241h-2.37v1.635h8.04c.127-.039.233-.188.318-.447zm-1.361-1.19h-3.857v-2.239h3.857v2.239zm0-3.13h-3.857v-2.229h3.857v2.229zm0-3.12h-3.857v-2.213h3.857v2.213zm0-2.992h-3.857V7.488h3.857v2.348zm0-3.111h-3.857V4.392h3.857v2.333zM14.16.031 0 2.536v18.552l14.16 2.443V.031zM8.393 16.57c-.054-.146-.308-.764-.758-1.858-.449-1.093-.72-1.729-.799-1.911h-.025l-1.519 3.605-2.03-.137 2.408-4.488-2.205-4.487 2.07-.109 1.368 3.512h.027l1.545-3.671 2.139-.135-2.547 4.857 2.625 4.955-2.299-.133z"/></svg>