<!DOCTYPE svg PUBLIC "-//W3C//DTD SVG 1.1//EN" "http://www.w3.org/Graphics/SVG/1.1/DTD/svg11.dtd">
<!-- Uploaded to: SVG Repo, www.svgrepo.com, Transformed by: SVG Repo Mixer Tools -->
<svg version="1.1" id="Layer_1" xmlns="http://www.w3.org/2000/svg" xmlns:xlink="http://www.w3.org/1999/xlink" viewBox="0 0 512 512" xml:space="preserve" width="800px" height="800px" fill="#000000">
<g id="SVGRepo_bgCarrier" stroke-width="0"/>
<g id="SVGRepo_tracerCarrier" stroke-linecap="round" stroke-linejoin="round"/>
<g id="SVGRepo_iconCarrier"> <path style="fill:#764c3d;" d="M55.849,144.222c23.737-20.165,54.482-32.33,88.067-32.33c75.167,0,136.102,60.934,136.102,136.102 c0,29.926-9.659,57.597-26.029,80.064"/> <path style="fill:#f93e60;" d="M344.065,288.024v13.998c0,26.303-20.268,49.239-46.559,50.027 c-27.204,0.816-49.513-20.993-49.513-48.013V171.948c0-15.482-12.55-28.032-28.032-28.032H35.847 c-15.482,0-28.032,12.55-28.032,28.032v200.126c0,15.482,12.55,28.032,28.032,28.032h172.117h40.03h136.061 c13.287,0,24.058-10.772,24.058-24.058v-88.026c0-17.686-14.337-32.024-32.024-32.024l0,0 C358.403,256,344.065,270.337,344.065,288.024z"/> <path style="fill:#f6a31e;" d="M408.113,376.089H7.815l0,0c0,13.265,10.753,24.018,24.018,24.018h352.263 C397.36,400.108,408.113,389.354,408.113,376.089L408.113,376.089z"/> <circle style="fill:#8b352d;" cx="143.912" cy="256.003" r="80.06"/> <circle style="fill:#764c3d;" cx="143.912" cy="256.003" r="56.041"/> <circle style="fill:#FFFFFF;" cx="143.912" cy="256.003" r="24.017"/> <path d="M143.916,343.875c-48.454,0-87.875-39.421-87.875-87.875s39.421-87.875,87.875-87.875S231.79,207.546,231.79,256 S192.37,343.875,143.916,343.875z M143.916,183.754c-39.836,0-72.246,32.408-72.246,72.246s32.409,72.246,72.246,72.246 s72.245-32.408,72.245-72.246S183.752,183.754,143.916,183.754z"/> <path d="M143.916,319.856c-35.21,0-63.857-28.646-63.857-63.856s28.646-63.856,63.857-63.856S207.772,220.79,207.772,256 S179.126,319.856,143.916,319.856z M143.916,207.773c-26.592,0-48.228,21.635-48.228,48.227s21.635,48.227,48.228,48.227 s48.227-21.635,48.227-48.227C192.143,229.408,170.508,207.773,143.916,207.773z"/> <path d="M199.53,248.706h-24.634c-2.725-11.574-11.776-20.729-23.295-23.596v-25.375h-15.629v25.435 c-11.397,2.938-20.331,12.049-23.036,23.536H88.043v15.629h25.155c2.986,10.994,11.725,19.646,22.774,22.494v25.435h15.629v-25.375 c11.171-2.78,20.023-11.475,23.032-22.554h24.897V248.706z M143.916,272.204c-8.935,0-16.203-7.27-16.203-16.204 s7.269-16.204,16.203-16.204c8.935,0,16.203,7.27,16.203,16.204C160.119,264.935,152.851,272.204,143.916,272.204z"/> <path d="M484.17,208.155c-6.728,0-12.2-5.473-12.2-12.2c0-6.728,5.473-12.201,12.2-12.201h4.003 c13.138,0,23.827-10.688,23.827-23.826s-10.688-23.826-23.827-23.826v15.629c4.52,0,8.198,3.677,8.198,8.197 c0,4.52-3.677,8.197-8.198,8.197h-4.003c-15.346,0-27.829,12.484-27.829,27.83s12.484,27.829,27.829,27.829 c6.728,0,12.201,5.473,12.201,12.201v72.053c0,11.141-9.065,20.207-20.207,20.207c-11.141,0-20.206-9.065-20.206-20.207 c0-33.003-26.851-59.853-59.853-59.853H376.09c-21.967,0-39.838,17.871-39.838,39.838v0.276h-0.194 c0,12.503-10.832,24.16-24.145,24.16c-13.42,0-24.339-11.074-24.339-24.371l0.258-40.017h-0.001c0-0.026,0.001-0.052,0.001-0.078 c0-79.356-64.56-143.916-143.916-143.916c-32.967,0-64.972,11.35-90.513,32.024H35.848C16.081,136.102,0,152.183,0,171.948v200.126 c0,19.767,16.081,35.847,35.847,35.847h348.208c17.574,0,31.873-14.298,31.873-31.873v-88.025c0-8.235-2.512-15.895-6.809-22.253 c18.054,5.57,31.21,22.41,31.21,42.267c0,19.76,16.076,35.836,35.835,35.836c19.76,0,35.836-16.076,35.836-35.836v-72.053 C512,220.64,499.516,208.155,484.17,208.155z M311.912,328.082c6.772,0,13.15-1.711,18.737-4.714 c-6.833,12.103-19.237,20.446-33.376,20.87c-10.99,0.351-21.379-3.695-29.251-11.335c-1.615-1.567-3.072-3.249-4.382-5.019 c4.789-7.155,8.869-14.668,12.265-22.449C282.371,318.803,296.081,328.082,311.912,328.082z M255.808,185.307 c10.433,18.549,16.395,39.933,16.395,62.687c0,21.965-5.485,43.118-15.957,62.01c-0.289-1.958-0.438-3.95-0.438-5.968 L255.808,185.307L255.808,185.307z M143.916,119.707c22.754,0,44.138,5.962,62.687,16.395H81.168 C100.209,125.431,121.819,119.707,143.916,119.707z M35.847,151.731h184.115c11.148,0,20.218,9.069,20.218,20.217v132.087 c0,15.235,6.022,29.47,16.957,40.083c10.932,10.609,25.357,16.208,40.604,15.742c29.852-0.895,54.139-26.842,54.139-57.839v-13.998 c0-13.35,10.86-24.209,24.209-24.209c13.348,0,24.209,10.86,24.209,24.209v80.505H15.629V171.948 C15.629,160.801,24.699,151.731,35.847,151.731z M384.055,392.292H35.847c-6.615,0-12.481-3.208-16.172-8.135h378.433 C395.297,389.012,390.057,392.292,384.055,392.292z"/> <g> <rect x="31.779" y="337.274" style="fill:#FFFFFF;" width="56.264" height="15.629"/> <rect x="31.779" y="312.268" style="fill:#FFFFFF;" width="16.671" height="15.629"/> <rect x="31.779" y="168.481" style="fill:#FFFFFF;" width="16.671" height="15.629"/> <rect x="368.324" y="279.968" style="fill:#FFFFFF;" width="15.629" height="15.629"/> </g> </g>
</svg>