<svg xmlns="http://www.w3.org/2000/svg" width="128" height="128" viewBox="0 0 24 24"><path fill="#ffa726" d="m19 4.86-8.991 4.383-3.501-1.701-1.458-.711L1 4.86 9.991.486l3.834 1.864 1.53.738z"/><path fill="#ffcc80" d="M9.99 19.779.5 14.84V5.36l9.49 4.37z"/><path fill="#ffb74d" d="M19.5 5.36v9.48l-9.49 4.939V9.73z"/><path fill="#4caf50" d="M17.5 23.35c-3.226 0-5.85-2.624-5.85-5.85s2.624-5.85 5.85-5.85 5.85 2.624 5.85 5.85-2.624 5.85-5.85 5.85z"/><path d="M16.5 20.25a.747.747 0 0 1-.53-.22l-1.75-1.75a.75.75 0 1 1 1.061-1.061l1.181 1.18 2.722-3.141a.75.75 0 0 1 1.134.982l-3.25 3.75a.75.75 0 0 1-.54.258c-.01.002-.019.002-.028.002z"/><path d="M17.5 24c-3.584 0-6.5-2.916-6.5-6.5s2.916-6.5 6.5-6.5 6.5 2.916 6.5 6.5-2.916 6.5-6.5 6.5zm0-11.5c-2.757 0-5 2.243-5 5s2.243 5 5 5 5-2.243 5-5-2.243-5-5-5zM10.007 10.5a.75.75 0 0 1-.329-1.424l9.244-4.5A.75.75 0 0 1 20 5.25v4a.75.75 0 0 1-1.5 0V6.449l-8.166 3.975a.735.735 0 0 1-.327.076z"/><path d="M9.25 20a.754.754 0 0 1-.366-.095l-8.5-4.75A.752.752 0 0 1 0 14.5V5.25a.75.75 0 0 1 1.079-.675l9.244 4.5a.75.75 0 1 1-.656 1.348L1.5 6.449v7.611l8.116 4.535A.75.75 0 0 1 9.25 20z"/><path d="M.75 6a.75.75 0 0 1-.328-1.424l9.244-4.5a.748.748 0 0 1 .656 0l9.256 4.5a.75.75 0 1 1-.656 1.348l-8.928-4.34-8.916 4.34A.736.736 0 0 1 .75 6z"/><path d="M5.25 11.99a.75.75 0 0 1-.75-.75v-3.8c0-.283.16-.542.413-.67l9.09-4.581a.75.75 0 0 1 .674 1.34L6 7.902v3.338a.75.75 0 0 1-.75.75z"/></svg>