<svg xmlns="http://www.w3.org/2000/svg" xml:space="preserve" id="_x31__x2C_5" width="32" height="32" x="0" y="0" style="enable-background:new 0 0 24 24" version="1.1" viewBox="0 0 24 24"><style>.st0{fill:#2196f3}.st1{fill:#1976d2}.st3{fill:#03a9f4}.st4{fill:#ffcc80}.st5{fill:#ffa726}.st6{fill:#ffc107}.st7{fill:#00bcd4}.st8{fill:#546e7a}.st10{fill:#ffeb3b}.st11{fill:#f44336}.st12{fill:#b0bec5}.st13{fill:#607d8b}.st14{fill:#64b5f6}.st15{fill:#90caf9}.st16{fill:#fff}.st17{fill:#cfd8dc}</style><path d="M16.706.9H3.293A2.543 2.543 0 0 0 .75 3.444v17.113a2.543 2.543 0 0 0 2.544 2.544h13.413a2.543 2.543 0 0 0 2.544-2.544V3.444A2.544 2.544 0 0 0 16.706.9z" style="fill:#eceff1"/><path d="M17.5 12.575c-3.35 0-6.075-2.725-6.075-6.075S14.15.425 17.5.425 23.575 3.15 23.575 6.5s-2.725 6.075-6.075 6.075z" style="fill:#4caf50"/><path d="M3.75 21a.75.75 0 0 1-.75-.75v-4.5a.75.75 0 0 1 .75-.75H5c1.103 0 2 .897 2 2s-.897 2-2 2h-.5v1.25a.75.75 0 0 1-.75.75zm.75-3.5H5a.5.5 0 0 0 0-1h-.5v1z"/><path d="M17.25 24H2.75A2.752 2.752 0 0 1 0 21.25V2.75A2.752 2.752 0 0 1 2.75 0h7.84a.75.75 0 0 1 0 1.5H2.75c-.689 0-1.25.561-1.25 1.25v18.5c0 .689.561 1.25 1.25 1.25h14.5c.689 0 1.25-.561 1.25-1.25v-5.92a.75.75 0 0 1 1.5 0v5.92A2.752 2.752 0 0 1 17.25 24z"/><path d="M10.25 21h-1.5a.75.75 0 0 1-.75-.75v-4.5a.75.75 0 0 1 .75-.75h1.5c.965 0 1.75.785 1.75 1.75v2.5c0 .965-.785 1.75-1.75 1.75zm-.75-1.5h.75a.25.25 0 0 0 .25-.25v-2.5a.25.25 0 0 0-.25-.25H9.5v3zM13.75 21a.75.75 0 0 1-.75-.75v-3.5c0-.965.785-1.75 1.75-1.75h1.5a.75.75 0 0 1 0 1.5h-1.5a.25.25 0 0 0-.25.25v3.5a.75.75 0 0 1-.75.75z"/><path d="M16.25 19h-2.5a.75.75 0 0 1 0-1.5h2.5a.75.75 0 0 1 0 1.5zM17.5 13c-3.584 0-6.5-2.916-6.5-6.5S13.916 0 17.5 0 24 2.916 24 6.5 21.084 13 17.5 13zm0-11.5c-2.757 0-5 2.243-5 5s2.243 5 5 5 5-2.243 5-5-2.243-5-5-5z"/><path d="M16.5 9.25a.747.747 0 0 1-.53-.22l-2-2a.75.75 0 1 1 1.061-1.061l1.433 1.433 2.972-3.396a.751.751 0 0 1 1.129.987l-3.5 4a.752.752 0 0 1-.565.257z"/></svg>