<svg xmlns="http://www.w3.org/2000/svg" xml:space="preserve" id="color" width="32" height="32" x="0" y="0" style="enable-background:new 0 0 24 24" version="1.1" viewBox="0 0 24 24"><style>.st7{fill:#607d8b}</style><path d="M19.25 24H4.75A2.752 2.752 0 0 1 2 21.25V2.75A2.752 2.752 0 0 1 4.75 0h14.5A2.752 2.752 0 0 1 22 2.75v18.5A2.752 2.752 0 0 1 19.25 24z" style="fill:#eceff1"/><path d="M5.75 20a.75.75 0 0 1-.75-.75v-4.5a.75.75 0 0 1 .75-.75H7c1.103 0 2 .897 2 2s-.897 2-2 2h-.5v1.25a.75.75 0 0 1-.75.75zm.75-3.5H7a.5.5 0 0 0 0-1h-.5v1zM12.25 20h-1.5a.75.75 0 0 1-.75-.75v-4.5a.75.75 0 0 1 .75-.75h1.5c.965 0 1.75.785 1.75 1.75v2.5c0 .965-.785 1.75-1.75 1.75zm-.75-1.5h.75a.25.25 0 0 0 .25-.25v-2.5a.25.25 0 0 0-.25-.25h-.75v3zM15.75 20a.75.75 0 0 1-.75-.75v-3.5c0-.965.785-1.75 1.75-1.75h1.5a.75.75 0 0 1 0 1.5h-1.5a.25.25 0 0 0-.25.25v3.5a.75.75 0 0 1-.75.75z" class="st7"/><path d="M18.25 18H16a.75.75 0 0 1 0-1.5h2.25a.75.75 0 0 1 0 1.5z" class="st7"/></svg>