<svg xmlns="http://www.w3.org/2000/svg" width="32" height="32" viewBox="0 0 24 24"><path fill="#607d8b" d="M0 8.25c0 .414.336.75.75.75h6.5a.75.75 0 0 0 .53-1.28L4.969 4.909A9.945 9.945 0 0 1 12 2c5.514 0 10 4.486 10 10a1 1 0 1 0 2 0c0-6.617-5.383-12-12-12a11.949 11.949 0 0 0-8.455 3.485L1.28 1.22A.75.75 0 0 0 0 1.75z"/><path fill="#90a4ae" d="M24 15.75a.75.75 0 0 0-.75-.75h-6.5a.75.75 0 0 0-.53 1.28l2.811 2.811A9.945 9.945 0 0 1 12 22C6.486 22 2 17.514 2 12a1 1 0 1 0-2 0c0 6.617 5.383 12 12 12 3.235 0 6.244-1.284 8.455-3.485l2.265 2.265a.748.748 0 0 0 1.28-.53z"/></svg>