<svg xmlns="http://www.w3.org/2000/svg" xml:space="preserve" width="24" height="24"><path fill="#CFD8DC" d="M12 20.561c-3.79 0-7.58-1.459-11.343-4.377a1.684 1.684 0 0 1-.293-2.382c7.63-9.61 15.642-9.61 23.271 0a1.683 1.683 0 0 1-.293 2.382C19.58 19.102 15.79 20.561 12 20.561z"/><path fill="#607D8B" d="M12 18c-2.206 0-4-1.794-4-4s1.794-4 4-4 4 1.794 4 4-1.794 4-4 4zM12 5.53a1 1 0 0 1-1-1V4a1 1 0 0 1 2 0v.53a1 1 0 0 1-1 1zM5.161 7.33a.996.996 0 0 1-.817-.423l-.41-.58a.999.999 0 1 1 1.633-1.154l.41.58a1 1 0 0 1-.816 1.577zM18.839 7.33a1 1 0 0 1-.815-1.578l.41-.58a1 1 0 1 1 1.633 1.155l-.41.58a1 1 0 0 1-.818.423zM1.349 11.21a.988.988 0 0 1-.513-.143l-.35-.21a1 1 0 1 1 1.029-1.715l.35.21a1 1 0 0 1-.516 1.858zM22.651 11.21a1 1 0 0 1-.515-1.858l.35-.21a1.001 1.001 0 0 1 1.029 1.715l-.35.21a.997.997 0 0 1-.514.143z"/></svg>