<svg xmlns="http://www.w3.org/2000/svg" xml:space="preserve" width="32" height="32" viewBox="0 0 24 24"><path fill="#ECEFF1" d="M14.25 0H2.75C1.23 0 0 1.23 0 2.75v15.5C0 19.77 1.23 21 2.75 21h7.38l.22-1.23c.1-.56.36-1.06.76-1.47L17 12.42V2.75C17 1.23 15.77 0 14.25 0z"/><path fill="#90A4AE" d="M13 10H4a1 1 0 0 1 0-2h9a1 1 0 0 1 0 2zM9 14H4a1 1 0 0 1 0-2h5a1 1 0 0 1 0 2zM8 6H4a1 1 0 0 1 0-2h4a1 1 0 0 1 0 2z"/><path fill="#FFC107" d="M12.528 24a.748.748 0 0 1-.738-.881l.53-3.005a.753.753 0 0 1 .208-.4l7.425-7.424c.912-.914 1.808-.667 2.298-.177l1.237 1.237a1.75 1.75 0 0 1 0 2.475l-7.425 7.425a.739.739 0 0 1-.4.208l-3.005.53a.715.715 0 0 1-.13.012zm3.005-1.28h.01-.01z"/></svg>