<svg xmlns="http://www.w3.org/2000/svg" xml:space="preserve" width="24" height="24"><path fill="#FCC34A" d="M17.5 24c-3.584 0-6.5-2.916-6.5-6.5s2.916-6.5 6.5-6.5 6.5 2.916 6.5 6.5-2.916 6.5-6.5 6.5z"/><path fill="#110638" d="M17.5 21a.5.5 0 0 1-.5-.5v-6a.5.5 0 0 1 1 0v6a.5.5 0 0 1-.5.5z"/><path fill="#110638" d="M20.5 18h-6a.5.5 0 0 1 0-1h6a.5.5 0 0 1 0 1zM8.5 18h-7a1.502 1.502 0 0 1-1.477-1.755L3.03 1.202A1.497 1.497 0 0 1 4.5 0h11c.716 0 1.334.506 1.471 1.204l1.54 7.698a.5.5 0 0 1-.98.196l-1.54-7.7A.5.5 0 0 0 15.5 1h-11a.496.496 0 0 0-.489.396l-3 15.002c-.005.03-.011.063-.011.102a.5.5 0 0 0 .5.5h7a.5.5 0 0 1 0 1z"/><path fill="#110638" d="M22.22 10.5a.5.5 0 0 1-.49-.402l-1.74-8.7A.498.498 0 0 0 19.5 1h-4a.5.5 0 0 1 0-1h4c.716 0 1.334.506 1.471 1.204l1.74 8.698a.5.5 0 0 1-.491.598zM10 9C7.794 9 6 7.206 6 5V2.5a.5.5 0 0 1 1 0V5c0 1.654 1.346 3 3 3s3-1.346 3-3V2.5a.5.5 0 0 1 1 0V5c0 2.206-1.794 4-4 4z"/></svg>