<svg xmlns="http://www.w3.org/2000/svg" xml:space="preserve" width="24" height="24"><path fill="#90A4AE" d="M1 6a1 1 0 0 1-1-1V4c0-1.654 1.346-3 3-3h1a1 1 0 1 1 0 2H3c-.552 0-1 .449-1 1v1a1 1 0 0 1-1 1zM23 6a1 1 0 0 1-1-1V4c0-.551-.448-1-1-1h-1a1 1 0 1 1 0-2h1c1.654 0 3 1.346 3 3v1a1 1 0 0 1-1 1zM4 23H3c-1.654 0-3-1.346-3-3v-1a1 1 0 1 1 2 0v1c0 .551.448 1 1 1h1a1 1 0 1 1 0 2zM21 23h-1a1 1 0 1 1 0-2h1c.552 0 1-.449 1-1v-1a1 1 0 1 1 2 0v1c0 1.654-1.346 3-3 3zM5 14a1 1 0 0 1-1-1V6a1 1 0 1 1 2 0v7a1 1 0 0 1-1 1zM5 19a1 1 0 0 1-1-1v-1a1 1 0 1 1 2 0v1a1 1 0 0 1-1 1zM9 14a1 1 0 0 1-1-1V6a1 1 0 1 1 2 0v7a1 1 0 0 1-1 1zM9 19a1 1 0 0 1-1-1v-1a1 1 0 1 1 2 0v1a1 1 0 0 1-1 1zM14 14a1 1 0 0 1-1-1V6a1 1 0 1 1 2 0v7a1 1 0 0 1-1 1zM14 19a1 1 0 0 1-1-1v-1a1 1 0 1 1 2 0v1a1 1 0 0 1-1 1zM19 14a1 1 0 0 1-1-1V6a1 1 0 1 1 2 0v7a1 1 0 0 1-1 1zM19 19a1 1 0 0 1-1-1v-1a1 1 0 1 1 2 0v1a1 1 0 0 1-1 1z"/></svg>