<svg xmlns="http://www.w3.org/2000/svg" width="32" height="32" viewBox="0 0 24 24"><path fill="#FAFAFA" d="M23 12c0 6.075-4.925 11-11 11S1 18.075 1 12 5.925 1 12 1s11 4.925 11 11Z"/><path fill="#F44336" fill-rule="evenodd" d="M12 1.75C6.34 1.75 1.75 6.34 1.75 12S6.34 22.25 12 22.25 22.25 17.66 22.25 12 17.66 1.75 12 1.75ZM.25 12C.25 5.51 5.51.25 12 .25S23.75 5.51 23.75 12 18.49 23.75 12 23.75.25 18.49.25 12Z"/><g fill="#486472" fill-rule="evenodd"><path d="M8.047 16.014c1.22.475 2.555.736 3.953.736 3.565 0 6.726-1.7 8.608-4.311a.75.75 0 0 0 0-.878 10.363 10.363 0 0 0-4.568-3.54l-7.993 7.993Zm6.374-8.496A10.987 10.987 0 0 0 12 7.25c-3.566 0-6.726 1.7-8.609 4.311a.75.75 0 0 0 0 .878 10.267 10.267 0 0 0 3.22 2.889l7.81-7.81Z"/><path fill="#FAFAFA" d="M10.086 13.975a2.75 2.75 0 0 0 3.889-3.889l-3.889 3.889ZM12.62 9.32a2.75 2.75 0 0 0-3.3 3.3l3.3-3.3Z"/><path fill="#F44336" d="m3.47 19.47 16-16 1.06 1.06-16 16-1.06-1.06Z"/></g></svg>