<svg xmlns="http://www.w3.org/2000/svg" xml:space="preserve" width="24" height="24"><path fill="#110638" d="M11.5 21h-10C.673 21 0 20.327 0 19.5v-8c0-.045.006-.089.018-.132L2.816 1.105A1.505 1.505 0 0 1 4.264 0h9.473c.674 0 1.27.454 1.447 1.105l2.799 10.263a.5.5 0 1 1-.965.263L14.219 1.369A.502.502 0 0 0 13.736 1H4.264a.502.502 0 0 0-.483.369L1 11.567V19.5c0 .275.225.5.5.5h10a.5.5 0 0 1 0 1z"/><path fill="#110638" d="M11 6H7c-1.103 0-2-.897-2-2s.897-2 2-2h4c1.103 0 2 .897 2 2s-.897 2-2 2zM7 3a1 1 0 0 0 0 2h4a1 1 0 0 0 0-2H7z"/><path fill="#FCC34A" d="M14.5 17a.5.5 0 0 1-.5-.5v-2a.5.5 0 0 1 .5-.5h2a.5.5 0 0 1 0 1H15v1.5a.5.5 0 0 1-.5.5zM23.5 24h-3a.5.5 0 0 1 0-1H23v-1.5a.5.5 0 0 1 1 0v2a.5.5 0 0 1-.5.5zM23.5 19h-3a.5.5 0 0 1-.5-.5v-4a.5.5 0 0 1 .5-.5h3a.5.5 0 0 1 .5.5v4a.5.5 0 0 1-.5.5zM18.5 24h-4a.5.5 0 0 1-.5-.5v-3a.5.5 0 0 1 .5-.5h4a.5.5 0 0 1 .5.5v3a.5.5 0 0 1-.5.5zM17.469 19H14.5a.5.5 0 0 1 0-1h2.969a.5.5 0 0 1 0 1zM20.5 22a.5.5 0 0 1-.5-.5v-1a.5.5 0 0 1 1 0v1a.5.5 0 0 1-.5.5zM18.5 17a.5.5 0 0 1-.5-.5v-2a.5.5 0 0 1 1 0v2a.5.5 0 0 1-.5.5z"/></svg>